Simulation
nRows=40
nColumns=15
endheader
time  TH_x TH_y TH_z SC_y  SC_z  SC_x  AC_y  AC_z  AC_x  GH_y  GH_z  GH_yy  EL_x  PS_y
8.6175  0.000000  0.000000  0.000000  -34.08305578964758  -3.7138099901222037  15.632970417467535  49.13775993265999  -22.234804776284033  -5.356506107810028  -18.795014803827616  21.974099196477777  24.535970810058757  20.657513029726367  120.000000
8.67495  0.000000  0.000000  0.000000  -34.14206491416374  -3.6099143334744777  14.392164970427634  49.79931271578527  -21.72526483473568  -3.8474855286074616  -19.293436756451786  22.759482057074262  24.734678571172196  20.587528743634298  120.000000
8.7324  0.000000  0.000000  0.000000  -34.235499428124356  -3.6148235696446864  13.010446194804027  50.67722519080822  -21.289538415844778  -2.020244040939459  -19.111167588078736  23.759350416188784  24.495402642316304  20.69393393090453  120.000000
8.78985  0.000000  0.000000  0.000000  -34.370819786525  -3.7259489525336758  11.492620080673671  51.78217406869648  -20.867878458737003  0.10481204831637601  -18.153428398983603  24.93086403241307  23.70538252728294  20.95352923035174  120.000000
8.8473  0.000000  0.000000  0.000000  -34.55263291641212  -3.9109823765535965  9.878013879602582  53.101842805692094  -20.37745575410944  2.467720884430929  -16.41640255280403  26.201535193152974  22.29554494846164  21.297882479630292  120.000000
8.90475  0.000000  0.000000  0.000000  -34.79850107696942  -4.10589418877188  8.240265990973564  54.612611788129364  -19.73320497028082  4.979572722668916  -13.933232918440256  27.478835700502994  20.213557811080552  21.647389563531075  120.000000
8.9622  0.000000  0.000000  0.000000  -35.17368077694635  -4.223244909183384  6.684044090995578  56.29342693042154  -18.871306466565088  7.5425223900128175  -10.684081933133355  28.662829612460506  17.358072671035863  21.948418785725046  120.000000
9.01965  0.000000  0.000000  0.000000  -35.77835057286715  -4.148312965661484  5.34403738403186  58.117448820180485  -17.773026490780232  10.062678452206493  -6.588349566868806  29.66961060100468  13.573632592746034  22.184802835121786  120.000000
9.0771  0.000000  0.000000  0.000000  -36.665449611397754  -3.731712169705361  4.389076428046909  60.04327036255368  -16.4863568656919  12.461529100360298  -1.605044326613221  30.458560500282562  8.71012981629026  22.348452642986977  120.000000
9.13455  0.000000  0.000000  0.000000  -37.76838970293243  -2.8123863501086555  4.031398496790716  62.00455809114993  -15.125536169939886  14.686656727178974  4.171350543178095  31.042596003329063  2.7034262108399827  22.426417470411575  120.000000
9.192  0.000000  0.000000  0.000000  -38.93410312674216  -1.2810464560352104  4.489354464791757  63.9386476949586  -13.798764710851804  16.692766144956018  10.610923059151094  31.484483670071697  -4.479143275329802  22.402593504296142  120.000000
9.24945  0.000000  0.000000  0.000000  -40.039743668796405  0.8811318754484488  5.942915029813942  65.79194016922325  -12.557932099827324  18.440298535633403  17.63946509910373  31.908507185752992  -12.858025923801817  22.2772775303678  120.000000
9.3069  0.000000  0.000000  0.000000  -41.08870360586416  3.633369284413094  8.504168007972702  67.48823513264578  -11.43913535426061  19.904332404109724  25.1368348099289  32.53217325945796  -22.314710448114198  22.051613081528785  120.000000
9.36435  0.000000  0.000000  0.000000  -42.22830736587567  6.88901541479566  12.20798198586944  68.90737654342418  -10.486150975648654  21.0828599914855  32.820730145136594  33.586130980218435  -32.47902473388156  21.717761558077942  120.000000
9.421800000000001  0.000000  0.000000  0.000000  -43.64901330770384  10.477345191398921  16.998255777411643  69.90862163842493  -9.729240836748735  21.995131821560783  40.30461392316185  35.19312842406122  -42.80593189899646  21.280860135740472  120.000000
9.47925  0.000000  0.000000  0.000000  -45.45309458290903  14.1372229002418  22.71005535687861  70.36243235071703  -9.194869836443196  22.67706773190988  47.18938755699517  37.31609675054666  -52.70212458379001  20.765974585763953  120.000000
9.5367  0.000000  0.000000  0.000000  -47.61179605015134  17.573041261392596  29.07611823408352  70.19631790981161  -8.891003960122248  23.149367370137416  53.161909941617914  39.77711139263777  -61.66025292691352  20.21373427079002  120.000000
9.59415  0.000000  0.000000  0.000000  -49.97987467108037  20.498501330041435  35.71197115952026  69.41913923864286  -8.698950343476843  23.36494943290156  58.08612777184245  42.325971546335474  -69.35875308350707  19.665019863574507  120.000000
9.6516  0.000000  0.000000  0.000000  -52.380780231300484  22.663375171851154  42.17105147731898  68.12514569275442  -8.476987987338878  23.298369906588057  61.997162525200416  44.6983414371837  -75.6514558827405  19.162328565368146  120.000000
9.70905  0.000000  0.000000  0.000000  -54.65022941033312  23.946114934875503  48.025819982842684  66.50919286193376  -8.209457195994197  23.00222484669767  65.01252933473678  46.71129873360866  -80.51505178364694  18.74011740646054  120.000000
9.7665  0.000000  0.000000  0.000000  -56.60730467307733  24.402794937092388  52.925675723041174  64.80641669321176  -7.94582026100155  22.54873860356253  67.27394817298054  48.28722083526903  -84.01554361361086  18.416057009744854  120.000000
9.82395  0.000000  0.000000  0.000000  -58.09055189484831  24.239046492323492  56.66178593244187  63.239738012690445  -7.733152199404912  21.989932665510203  68.90399383524054  49.43435697335937  -86.29095884033869  18.199032064334563  120.000000
9.8814  0.000000  0.000000  0.000000  -59.007356815918286  23.76140056464342  59.185352230035974  61.98494799824975  -7.614444912722466  21.36049057638645  69.98630435545691  50.21353344284816  -87.52352618852437  18.09156794312119  120.000000
9.93885  0.000000  0.000000  0.000000  -59.369897077709616  23.28939846092864  60.59313526920799  61.139778843360475  -7.6659609372566795  20.694257140502895  70.59920961939427  50.682161033976705  -87.92556457823271  18.079620452295604  120.000000
9.9963  0.000000  0.000000  0.000000  -59.29326300857812  23.089176394290238  61.088595245041176  60.73432116889667  -8.000684183216846  20.014406775741737  70.82233450123925  50.86405628888155  -87.6942578983504  18.132018507811345  120.000000
10.05375  0.000000  0.000000  0.000000  -58.845030148959154  23.24280862559077  60.77299266742682  60.75585689644002  -8.677675669061129  19.338046296919362  70.70602170355836  50.767743125717814  -86.93790254519975  18.215278451276912  120.000000
10.1112  0.000000  0.000000  0.000000  -57.940979408917876  23.584570507632158  59.493638314848575  61.169157306759715  -9.61737047383121  18.686809229495317  70.2373637487093  50.41282371165199  -85.63114659268496  18.307441551146397  120.000000
10.16865  0.000000  0.000000  0.000000  -56.51307739365409  23.8200819170674  57.05597386943204  61.905770454958635  -10.676198115880563  18.10431918161992  69.36840564480592  49.784571748777914  -83.64086084073132  18.3918580264627  120.000000
10.2261  0.000000  0.000000  0.000000  -54.63694816990842  23.645668959527555  53.41849224191707  62.86335915704958  -11.709706507471049  17.646433233481865  68.02741239255768  48.814336142423734  -80.77874538681736  18.45123719418579  120.000000
10.28355  0.000000  0.000000  0.000000  -52.49221250783714  22.81887950049486  48.70323214970809  63.91838745470586  -12.563379994876618  17.35734281496412  66.10419135320222  47.41707774105781  -76.84885000813867  18.46864364252671  120.000000
10.341000000000001  0.000000  0.000000  0.000000  -50.29953871310725  21.24707352067164  43.16699261970427  64.95289748888212  -13.090433774289648  17.253799150946453  63.42451583527114  45.55623431662548  -71.6723915225059  18.444537209311115  120.000000
10.39845  0.000000  0.000000  0.000000  -48.24006827349165  19.00811835608388  37.13295157996911  65.8798539102903  -13.208924224153566  17.338777041191385  59.7577645716041  43.28674424659438  -65.10663481293713  18.412073361995954  120.000000
10.4559  0.000000  0.000000  0.000000  -46.41259741808495  16.323437008193704  30.9238983947947  66.64311460100708  -12.999493024578518  17.637261994344723  54.85300158936953  40.776685043254034  -57.05542992305961  18.43290687882751  120.000000
10.51335  0.000000  0.000000  0.000000  -44.844343030455896  13.424415753972117  24.83165467808116  67.1901646019289  -12.624942408011416  18.142046212275638  48.57151146451022  38.2862548158758  -47.54547699997842  18.59015855895868  120.000000
10.5708  0.000000  0.000000  0.000000  -43.53324434975628  10.475697461958555  19.11018217799393  67.46571684893779  -12.193097362756388  18.76201792516363  41.029529220083866  36.10508610775622  -36.83160820050216  18.966664888613675  120.000000
10.62825  0.000000  0.000000  0.000000  -42.436073656175324  7.630803103415571  13.955257037547309  67.4596397454743  -11.781328366850738  19.374678395279094  32.62021003085173  34.50365407430363  -25.44788124870583  19.589181146793045  120.000000
10.6857  0.000000  0.000000  0.000000  -41.49528563889663  5.0368425020330205  9.481181804729069  67.16269370722274  -11.485243087725252  19.888558480005845  23.94802960968171  33.60604914852947  -14.152969322223282  20.396168442114796  120.000000
10.74315  0.000000  0.000000  0.000000  -40.63316794715585  2.831880323448432  5.699834457452741  66.50915897279795  -11.307781803196445  20.172597969872108  15.670388682119453  33.309282658545115  -3.727387010041805  21.276689489068136  120.000000
10.8006  0.000000  0.000000  0.000000  -39.75285564048875  1.0824595755514175  2.5401505110367486  65.43601196622791  -11.031079470368867  20.032879455763094  8.411684008697526  33.29048922934562  5.166793040850111  22.126345348834754  120.000000
10.85805  0.000000  0.000000  0.000000  -38.79194143192818  -0.20537275407436464  -0.11909455353789904  63.96869996158567  -10.380412855581028  19.365900832317028  2.6216341804844765  33.1300608609691  12.147995714708966  22.87130147567677  120.000000
